<svg width="30" height="30" viewBox="0 0 30 30" fill="none" xmlns="http://www.w3.org/2000/svg">
<g clip-path="url(#clip0_11_5439)">
<path d="M11.3452 7.13865H11.7459V12.4983C11.7459 12.7491 11.9494 12.9526 12.2002 12.9526H19.6097C19.8605 12.9526 20.0639 12.7491 20.0639 12.4983V7.13865H20.4647C20.6606 7.13865 20.8345 7.01397 20.8959 6.82834C20.9583 6.64272 20.8941 6.4374 20.7375 6.32022L16.1972 2.92272C16.035 2.80178 15.8147 2.80084 15.6534 2.92178L11.0738 6.31928C10.9163 6.43647 10.852 6.64084 10.9134 6.8274C10.9753 7.01303 11.1492 7.13865 11.3452 7.13865ZM16.5783 12.0427H15.3141V10.4569C15.3141 10.1101 15.5986 9.82694 15.9488 9.82694C16.1152 9.82694 16.2717 9.89209 16.3945 10.0135C16.5108 10.1279 16.5787 10.2891 16.5787 10.4565L16.5783 12.0427ZM15.9239 3.85365L19.0987 6.22928H12.7214L15.9239 3.85365ZM12.6553 7.13865H19.1545V12.0432H17.4872V10.4574C17.4872 10.0463 17.3198 9.64787 17.032 9.36803C16.7419 9.07787 16.3575 8.9185 15.9478 8.9185C15.0966 8.9185 14.4042 9.60897 14.4042 10.4574V12.0432H12.6553V7.13865ZM3.09188 15.4543H11.3452C11.5959 15.4543 11.8003 15.2508 11.8003 15.0001C11.8003 14.7493 11.5959 14.5449 11.3452 14.5449H3.09188C2.84109 14.5449 2.63672 14.7493 2.63672 15.0001C2.63672 15.2508 2.84109 15.4543 3.09188 15.4543ZM3.09188 18.6221H11.3452C11.5959 18.6221 11.8003 18.4187 11.8003 18.1669C11.8003 17.9162 11.5959 17.7127 11.3452 17.7127H3.09188C2.84109 17.7127 2.63672 17.9162 2.63672 18.1669C2.63672 18.4187 2.84109 18.6221 3.09188 18.6221ZM11.8003 21.3347C11.8003 21.084 11.5959 20.8805 11.3452 20.8805H3.09188C2.84109 20.8805 2.63672 21.084 2.63672 21.3347C2.63672 21.5865 2.84109 21.7899 3.09188 21.7899H11.3452C11.5959 21.7894 11.8003 21.5865 11.8003 21.3347Z" fill="white"/>
<path d="M29.4216 7.58627L28.7887 6.95346C28.0453 6.21096 26.865 6.18096 26.1577 6.88737L23.9437 9.10127V2.03534C23.9437 1.0144 23.1136 0.185181 22.0936 0.185181H8.91C8.90062 0.185181 8.89359 0.188931 8.88422 0.189868C8.84203 0.191743 8.80078 0.199712 8.76047 0.214712C8.74781 0.219399 8.73469 0.222212 8.72297 0.228306C8.67375 0.250337 8.62687 0.278462 8.58844 0.317837L0.132656 8.77362C0.0932812 8.81206 0.0660937 8.85752 0.0440625 8.90627C0.0375 8.91987 0.0342187 8.93487 0.0285937 8.9494C0.0159375 8.98784 0.0084375 9.02627 0.005625 9.06565C0.0046875 9.07549 0 9.08487 0 9.09471V27.9647C0 28.9857 0.829687 29.8149 1.85016 29.8149H22.0936C23.1136 29.8149 23.9437 28.9852 23.9437 27.9647V15.7617L28.3097 11.3958C28.3106 11.3958 28.3106 11.3949 28.3106 11.3949L29.4872 10.2174C30.195 9.51049 30.1659 8.32971 29.4216 7.58627ZM5.00344 5.18815L8.45484 1.73674V7.69877C8.45484 8.21768 8.03297 8.64002 7.51359 8.64002H1.55203L5.00344 5.18815ZM23.0348 27.9647C23.0348 28.4836 22.613 28.906 22.0936 28.906H1.85016C1.33125 28.906 0.908906 28.4841 0.908906 27.9647V9.54893H7.51359C8.53359 9.54893 9.36375 8.71924 9.36375 7.69877V1.09315H22.0931C22.612 1.09315 23.0344 1.51596 23.0344 2.03534V10.0107L12.7706 20.2753C12.7167 20.3283 12.6773 20.3953 12.6553 20.4685L11.5355 24.2752C11.4886 24.4346 11.5327 24.6075 11.6498 24.7247C11.7361 24.8119 11.8523 24.8583 11.9714 24.8583C12.0145 24.8583 12.0577 24.8517 12.0994 24.8391L15.907 23.7192C15.9802 23.6982 16.0462 23.6588 16.1002 23.6049L23.0344 16.6707L23.0348 27.9647ZM13.3889 21.1983L15.1767 22.9871L12.6436 23.7324L13.3889 21.1983ZM23.1722 15.248C23.1694 15.2499 23.1675 15.2527 23.1647 15.2546L15.9473 22.4724L13.9031 20.4272L25.3012 9.02909L26.0025 9.73034L23.6494 12.0825C23.4717 12.2602 23.4717 12.5485 23.6494 12.7252C23.738 12.8138 23.8547 12.8588 23.9709 12.8588C24.0872 12.8588 24.2034 12.8138 24.2925 12.7252L26.6456 10.373L27.3459 11.0742L23.1722 15.248ZM28.8445 9.57471L27.9886 10.4316L25.9444 8.38643L26.8003 7.53049C27.1528 7.17799 27.757 7.20752 28.1461 7.59659L28.7789 8.2294C29.168 8.61799 29.198 9.22221 28.8445 9.57471Z" fill="white"/>
</g>
<defs>
<clipPath id="clip0_11_5439">
<rect width="30" height="30" fill="white"/>
</clipPath>
</defs>
</svg>
