<svg width="24" height="25" viewBox="0 0 24 25" fill="none" xmlns="http://www.w3.org/2000/svg">
<g id="expand_more">
<path id="expand_more_2" d="M11.9999 15.1498C11.8832 15.1498 11.7709 15.1332 11.6629 15.0998C11.5542 15.0665 11.4582 14.9998 11.3749 14.8998L6.8499 10.3998C6.71657 10.2498 6.6499 10.0748 6.6499 9.87484C6.6499 9.67484 6.7249 9.49984 6.8749 9.34984C7.0249 9.21651 7.1999 9.14984 7.3999 9.14984C7.5999 9.14984 7.7749 9.21651 7.9249 9.34984L11.9999 13.4248L16.0999 9.34984C16.2332 9.19984 16.3999 9.12884 16.5999 9.13684C16.7999 9.1455 16.9749 9.21651 17.1249 9.34984C17.2749 9.49984 17.3499 9.67884 17.3499 9.88684C17.3499 10.0955 17.2749 10.2665 17.1249 10.3998L12.6249 14.8998C12.5416 14.9998 12.4459 15.0665 12.3379 15.0998C12.2292 15.1332 12.1166 15.1498 11.9999 15.1498Z" fill="white"/>
</g>
</svg>
