<svg width="45" height="23" viewBox="0 0 45 23" fill="none" xmlns="http://www.w3.org/2000/svg">
<path d="M44.2511 10.0348H5.74258L17.018 1.125C17.243 0.928125 17.1064 0.5625 16.8091 0.5625H13.2533C13.0966 0.5625 12.9479 0.61875 12.8314 0.719196L0.443022 10.5893C0.303959 10.7098 0.192431 10.8588 0.115995 11.0262C0.0395586 11.1936 0 11.3755 0 11.5596C0 11.7436 0.0395586 11.9255 0.115995 12.0929C0.192431 12.2603 0.303959 12.4093 0.443022 12.5299L12.6225 22.4821C12.6828 22.5344 12.7551 22.5625 12.8314 22.5625H16.5078C16.8051 22.5625 16.9417 22.1929 16.7167 22L5.74258 13.0884H44.2511C44.4278 13.0884 44.5725 12.9437 44.5725 12.7669V10.3562C44.5725 10.1794 44.4278 10.0348 44.2511 10.0348Z" fill="white" fill-opacity="0.85"/>
</svg>
