<svg width="28" height="30" viewBox="0 0 28 30" fill="none" xmlns="http://www.w3.org/2000/svg">
<path d="M25.3981 17.7859C25.4001 17.7744 25.4024 17.7629 25.4043 17.7514L25.4081 17.7289L25.4099 17.7061C25.4169 17.6183 25.5776 15.5254 25.204 12.8253C24.9839 11.2338 24.6222 9.76259 24.129 8.45242C23.5057 6.79627 22.6688 5.39234 21.6416 4.27965C20.4245 2.96132 18.9416 2.04656 17.2116 1.54039C16.5381 0.852947 15.3976 0 13.8858 0C12.4055 0 11.1783 0.824114 10.4228 1.49707C8.62896 1.99375 7.09638 2.92367 5.84453 4.27965C4.8173 5.39234 3.98041 6.79627 3.35705 8.45242C2.86394 9.76259 2.50225 11.2338 2.28208 12.8253C1.99854 14.8747 2.02277 16.5741 2.05399 17.3126C1.56095 17.5451 0.733948 18.051 0.293825 18.969C-0.109008 19.8092 -0.0975887 20.7808 0.327832 21.8568L0.345388 21.9012L0.370545 21.9418C0.404159 21.9961 1.21718 23.2905 3.2287 24.9276C4.3968 25.8783 5.73537 26.754 7.20721 27.5303C9.03993 28.497 11.0866 29.3121 13.2903 29.953L13.4519 30L13.6113 29.946C13.6443 29.9349 16.9489 28.8116 20.2357 27.246C22.1812 26.3193 23.7453 25.4187 24.8847 24.5691C26.377 23.4563 27.1547 22.4301 27.2581 21.4359C27.4345 20.987 27.7635 19.5013 25.3981 17.7859ZM16.6898 2.55784C16.1773 2.86622 15.2107 3.31462 13.9228 3.31462C12.9294 3.31462 11.9091 3.05231 10.8823 2.53393C11.4594 1.96224 12.5705 1.07051 13.8858 1.07051C15.2131 1.07051 16.2119 2.00196 16.6898 2.55784ZM3.34249 12.972C3.66943 10.6088 4.50539 7.30837 6.6311 5.00581C7.44508 4.1241 8.39701 3.44519 9.47901 2.96959L9.75767 3.13592C11.1467 3.96481 12.548 4.38513 13.9228 4.38513C16.2966 4.38513 17.7473 3.13131 17.8079 3.07797L17.9561 2.94747C19.058 3.42342 20.0262 4.10887 20.8524 5.00303C22.9745 7.29973 23.8116 10.5907 24.1401 12.9471C24.4811 15.3924 24.3603 17.3688 24.3444 17.5986C24.0032 19.522 21.1997 20.7424 18.9027 21.4285C16.4982 22.1466 14.1301 22.4337 13.7431 22.4775C13.3561 22.4337 10.9879 22.1466 8.58339 21.4285C6.28643 20.7424 3.48284 19.5219 3.14167 17.5984C3.12568 17.369 3.00489 15.4122 3.34249 12.972ZM26.2648 21.0406L26.206 21.126L26.1976 21.2724C26.1706 21.7403 25.8104 22.5428 24.2477 23.7088C23.1656 24.5161 21.6636 25.3797 19.7833 26.2758C16.959 27.6217 14.1177 28.6362 13.4265 28.8773C8.72591 27.4863 5.68402 25.5361 3.95393 24.1375C2.24287 22.7542 1.44687 21.6267 1.30432 21.4142C1.01249 20.6506 0.996151 19.9863 1.25579 19.439C1.49251 18.9399 1.92096 18.6093 2.26192 18.4117C2.90822 20.098 4.93134 21.4572 8.29121 22.4584C11.0023 23.2664 13.58 23.5373 13.6884 23.5485L13.7431 23.5541L13.7978 23.5485C13.9062 23.5373 16.4839 23.2664 19.195 22.4584C22.2624 21.5443 24.2156 20.3318 25.0242 18.8445C25.844 19.4922 26.1503 20.0309 26.2579 20.3906C26.3688 20.7617 26.2848 20.9936 26.2648 21.0406Z" fill="white"/>
<path d="M9.37905 17.314C9.45552 18.0185 9.24331 18.6345 9.24181 18.6388L8.91966 19.5361L9.8535 19.3438C10.0365 19.3062 10.2203 19.2871 10.3999 19.2871C12.0961 19.2871 13.1784 20.9971 13.1967 21.0264L13.7705 21.9665L14.1547 20.933C14.5413 19.8925 15.3377 19.365 16.5216 19.365C17.0462 19.365 17.4449 19.4759 17.4473 19.4765L18.5267 19.7886L18.0889 18.7538C17.8444 18.1758 18.0199 17.4767 18.6107 16.6758C19.104 16.0071 19.7033 15.5353 19.7087 15.531L20.467 14.9412L19.5665 14.6067C17.5856 13.871 18.357 11.382 18.3904 11.2777L18.7346 10.2203L17.6935 10.6108C17.3906 10.7243 17.1041 10.7819 16.8421 10.7819C16.3672 10.7819 16.0643 10.5913 15.9167 10.4662C15.8876 9.00111 15.5618 7.84196 14.9472 7.01827C14.4285 6.32315 13.8813 6.1275 13.8206 6.10745L13.56 6.02148L13.338 6.18288C11.7107 7.36644 11.5999 9.5714 11.6211 10.4084C11.255 10.6105 10.8512 10.6575 10.5545 10.6575H10.5544C10.2068 10.6575 9.95331 10.5943 9.95302 10.5942L9.03945 10.3539L9.30283 11.2611C9.82856 13.072 7.81736 14.5129 7.79802 14.5266L6.98828 15.0909L7.90296 15.4618C8.80048 15.8257 9.28328 16.4315 9.37905 17.314ZM9.63158 14.187C10.2187 13.3938 10.4984 12.556 10.4591 11.727C10.4902 11.7278 10.522 11.7282 10.5544 11.7282C10.5545 11.7282 10.5544 11.7282 10.5545 11.7282C11.3099 11.7282 11.9836 11.5126 12.5027 11.1047L12.7334 10.9223L12.7046 10.6301C12.7023 10.6068 12.5035 8.42956 13.7103 7.26485C13.8314 7.35848 13.9858 7.50625 14.1421 7.73216C14.4643 8.19772 14.8483 9.08775 14.8483 10.6838V10.859L14.9519 11.0003C15.184 11.3168 15.8433 11.8525 16.8421 11.8525C16.956 11.8525 17.0718 11.8457 17.1892 11.832C17.1542 12.1168 17.1354 12.4498 17.1602 12.8001C17.2361 13.8733 17.6779 14.6994 18.4499 15.2292C17.8008 15.8819 16.8681 17.0458 16.912 18.3102C16.7904 18.3005 16.6593 18.2946 16.5216 18.2946C15.2204 18.2946 14.1953 18.8069 13.5584 19.7564C12.9582 19.1001 11.8867 18.2271 10.4262 18.2167C10.4635 17.9364 10.4825 17.6005 10.4478 17.2426C10.3756 16.4963 10.0614 15.5382 9.04705 14.8588C9.23236 14.6753 9.43729 14.4495 9.63158 14.187Z" fill="white"/>
<path d="M13.6535 18.2843C15.444 18.2843 16.9007 16.8277 16.9007 15.0371C16.9007 13.2466 15.444 11.7899 13.6535 11.7899C11.8629 11.7899 10.4062 13.2466 10.4062 15.0371C10.4063 16.8277 11.863 18.2843 13.6535 18.2843ZM13.6535 12.8605C14.8537 12.8605 15.8302 13.8369 15.8302 15.0372C15.8302 16.2374 14.8537 17.2139 13.6535 17.2139C12.4532 17.2139 11.4768 16.2374 11.4768 15.0372C11.4768 13.8369 12.4532 12.8605 13.6535 12.8605Z" fill="white"/>
<path d="M19.1782 24.5192L13.6578 26.7892L8.31483 24.5215C8.04278 24.4059 7.72851 24.5329 7.613 24.8051C7.49749 25.0772 7.62446 25.3914 7.89658 25.5069L13.4454 27.862C13.5122 27.8904 13.5833 27.9045 13.6545 27.9045C13.7236 27.9045 13.7928 27.8911 13.8581 27.8643L19.5853 25.5092C19.8587 25.3968 19.9892 25.084 19.8768 24.8106C19.7644 24.5373 19.4517 24.4068 19.1782 24.5192Z" fill="white"/>
</svg>
