<svg width="32" height="31" viewBox="0 0 32 31" fill="none" xmlns="http://www.w3.org/2000/svg">
<g id="clarity:notification-line">
<path id="Vector" d="M28.2834 24.0838C27.4671 23.356 26.7524 22.5217 26.1586 21.6033C25.5103 20.3356 25.1217 18.9513 25.0157 17.5314V13.3494C25.0213 11.1192 24.2123 8.96373 22.7408 7.28796C21.2692 5.6122 19.2364 4.53147 17.0242 4.24883V3.15677C17.0242 2.85703 16.9051 2.56957 16.6932 2.35763C16.4812 2.14568 16.1938 2.02661 15.894 2.02661C15.5943 2.02661 15.3068 2.14568 15.0949 2.35763C14.8829 2.56957 14.7639 2.85703 14.7639 3.15677V4.26576C12.5715 4.56877 10.5632 5.65603 9.11097 7.32617C7.65874 8.99631 6.86098 11.1362 6.86544 13.3494V17.5314C6.75942 18.9513 6.37086 20.3356 5.72259 21.6033C5.13921 22.5196 4.43598 23.3538 3.63158 24.0838C3.54128 24.1631 3.46891 24.2607 3.41928 24.3702C3.36965 24.4797 3.3439 24.5985 3.34375 24.7187V25.87C3.34375 26.0945 3.43294 26.3098 3.5917 26.4686C3.75046 26.6274 3.96579 26.7166 4.19031 26.7166H27.7247C27.9492 26.7166 28.1646 26.6274 28.3233 26.4686C28.4821 26.3098 28.5713 26.0945 28.5713 25.87V24.7187C28.5711 24.5985 28.5454 24.4797 28.4957 24.3702C28.4461 24.2607 28.3737 24.1631 28.2834 24.0838ZM5.1046 25.0234C5.89224 24.2626 6.58574 23.4099 7.17021 22.4838C7.98681 20.9527 8.46327 19.2635 8.56703 17.5314V13.3494C8.53346 12.3572 8.69988 11.3685 9.05638 10.442C9.41289 9.51551 9.95218 8.67024 10.6422 7.95652C11.3321 7.2428 12.1587 6.67522 13.0726 6.28758C13.9865 5.89995 14.969 5.70018 15.9617 5.70018C16.9544 5.70018 17.937 5.89995 18.8509 6.28758C19.7648 6.67522 20.5913 7.2428 21.2813 7.95652C21.9713 8.67024 22.5106 9.51551 22.8671 10.442C23.2236 11.3685 23.39 12.3572 23.3564 13.3494V17.5314C23.4602 19.2635 23.9367 20.9527 24.7533 22.4838C25.3377 23.4099 26.0312 24.2626 26.8189 25.0234H5.1046Z" fill="white"/>
<path id="Vector_2" d="M15.9995 29.5439C16.5328 29.5316 17.0445 29.3312 17.4442 28.9779C17.8439 28.6247 18.1058 28.1415 18.1836 27.6138H13.7307C13.8107 28.1558 14.0848 28.6504 14.5022 29.0054C14.9195 29.3605 15.4516 29.5518 15.9995 29.5439Z" fill="white"/>
</g>
</svg>
