<svg width="24" height="24" viewBox="0 0 24 24" fill="none" xmlns="http://www.w3.org/2000/svg">
<path d="M11.9999 14.6498C11.8832 14.6498 11.7709 14.6332 11.6629 14.5998C11.5542 14.5665 11.4582 14.4998 11.3749 14.3998L6.8499 9.89984C6.71657 9.74984 6.6499 9.57484 6.6499 9.37484C6.6499 9.17484 6.7249 8.99984 6.8749 8.84984C7.0249 8.71651 7.1999 8.64984 7.3999 8.64984C7.5999 8.64984 7.7749 8.71651 7.9249 8.84984L11.9999 12.9248L16.0999 8.84984C16.2332 8.69984 16.3999 8.62884 16.5999 8.63684C16.7999 8.6455 16.9749 8.71651 17.1249 8.84984C17.2749 8.99984 17.3499 9.17884 17.3499 9.38684C17.3499 9.5955 17.2749 9.7665 17.1249 9.89984L12.6249 14.3998C12.5416 14.4998 12.4459 14.5665 12.3379 14.5998C12.2292 14.6332 12.1166 14.6498 11.9999 14.6498Z" fill="white"/>
</svg>
