<svg width="22" height="22" viewBox="0 0 22 22" fill="none" xmlns="http://www.w3.org/2000/svg">
<path d="M20.4156 19.703H2.29684V1.58421C2.29684 1.19807 1.9701 0.871338 1.58396 0.871338C1.19783 0.871338 0.871094 1.19807 0.871094 1.58421V20.4159C0.871094 20.802 1.19783 21.1288 1.58396 21.1288H20.4156C20.8018 21.1288 21.1285 20.802 21.1285 20.4159C21.1285 20.0298 20.8018 19.703 20.4156 19.703Z" fill="white"/>
<path d="M9.21699 16.9405V6.66331C9.21699 6.27717 8.89026 5.95044 8.50412 5.95044C8.11798 5.95044 7.79125 6.27717 7.79125 6.66331V16.9702C7.79125 17.3564 8.11798 17.6831 8.50412 17.6831C8.89026 17.6831 9.21699 17.3564 9.21699 16.9405ZM5.77145 16.9405V6.66331C5.77145 6.27717 5.44471 5.95044 5.05857 5.95044C4.67244 5.95044 4.3457 6.27717 4.3457 6.66331V16.9702C4.3457 17.3564 4.67244 17.6831 5.05857 17.6831C5.44471 17.6534 5.77145 17.3564 5.77145 16.9405ZM16.1378 16.9405V6.66331C16.1378 6.27717 15.8111 5.95044 15.4249 5.95044C15.0388 5.95044 14.712 6.27717 14.712 6.66331V16.9702C14.712 17.3564 15.0388 17.6831 15.4249 17.6831C15.8111 17.6534 16.1378 17.3564 16.1378 16.9405ZM19.5833 16.9405V11.8019C19.5833 11.4158 19.2566 11.0891 18.8705 11.0891C18.4843 11.0891 18.1576 11.4158 18.1576 11.8019V16.9405C18.1576 17.3267 18.4843 17.6534 18.8705 17.6534C19.2566 17.6534 19.5833 17.3564 19.5833 16.9405ZM12.6625 16.9405V11.8019C12.6625 11.4158 12.3358 11.0891 11.9497 11.0891C11.5635 11.0891 11.2368 11.4158 11.2368 11.8019V16.9405C11.2368 17.3267 11.5635 17.6534 11.9497 17.6534C12.3358 17.6534 12.6625 17.3564 12.6625 16.9405Z" fill="white"/>
</svg>
