<svg width="26" height="17" viewBox="0 0 26 17" fill="none" xmlns="http://www.w3.org/2000/svg">
<path d="M25.74 0H0.26C0.117 0 0 0.144643 0 0.321429V2.57143C0 2.74821 0.117 2.89286 0.26 2.89286H25.74C25.883 2.89286 26 2.74821 26 2.57143V0.321429C26 0.144643 25.883 0 25.74 0Z" fill="white"/>
<path d="M25.74 7H0.26C0.117 7 0 7.14464 0 7.32143V9.57143C0 9.74821 0.117 9.89286 0.26 9.89286H25.74C25.883 9.89286 26 9.74821 26 9.57143V7.32143C26 7.14464 25.883 7 25.74 7Z" fill="white"/>
<path d="M25.74 14H0.26C0.117 14 0 14.1446 0 14.3214V16.5714C0 16.7482 0.117 16.8929 0.26 16.8929H25.74C25.883 16.8929 26 16.7482 26 16.5714V14.3214C26 14.1446 25.883 14 25.74 14Z" fill="white"/>
</svg>
