<svg width="30" height="30" viewBox="0 0 30 30" fill="none" xmlns="http://www.w3.org/2000/svg">
<path d="M27.7227 23.7021H25.0442V21.0235C25.0442 20.8762 24.9236 20.7557 24.7763 20.7557H23.1692C23.0219 20.7557 22.9013 20.8762 22.9013 21.0235V23.7021H20.2227C20.0754 23.7021 19.9549 23.8226 19.9549 23.9699V25.5771C19.9549 25.7244 20.0754 25.8449 20.2227 25.8449H22.9013V28.5235C22.9013 28.6708 23.0219 28.7914 23.1692 28.7914H24.7763C24.9236 28.7914 25.0442 28.6708 25.0442 28.5235V25.8449H27.7227C27.8701 25.8449 27.9906 25.7244 27.9906 25.5771V23.9699C27.9906 23.8226 27.8701 23.7021 27.7227 23.7021ZM10.3622 14.5414C10.3321 14.2501 10.3154 13.9554 10.3154 13.6574C10.3154 13.1251 10.3656 12.6061 10.4593 12.1005C10.4828 11.98 10.4192 11.8561 10.3087 11.8059C9.85332 11.6016 9.43479 11.3204 9.07319 10.9655C8.64709 10.5523 8.3118 10.0549 8.08869 9.50493C7.86559 8.95495 7.75958 8.36451 7.77743 7.77128C7.80756 6.6965 8.23948 5.67529 8.99283 4.90521C9.81984 4.05811 10.9314 3.59605 12.1134 3.60945C13.1814 3.61949 14.2127 4.03132 14.9928 4.76123C15.2573 5.009 15.485 5.28355 15.6759 5.5782C15.7428 5.68199 15.8734 5.72552 15.9873 5.68534C16.5765 5.4811 17.1993 5.33712 17.8388 5.27016C18.0263 5.25007 18.1335 5.04918 18.0497 4.88177C16.9616 2.72887 14.7384 1.24226 12.1669 1.20208C8.45712 1.14516 5.36337 4.18869 5.36337 7.89851C5.36337 10.0012 6.331 11.8762 7.84774 13.105C6.78301 13.5972 5.80198 14.2769 4.95153 15.1273C3.11671 16.9588 2.07877 19.3762 2.0118 21.9577C2.01091 21.9934 2.01718 22.0289 2.03024 22.0622C2.0433 22.0955 2.06289 22.1258 2.08785 22.1514C2.11281 22.177 2.14264 22.1973 2.17558 22.2112C2.20853 22.2251 2.24391 22.2322 2.27966 22.2322H4.15801C4.30198 22.2322 4.42252 22.1184 4.42587 21.9744C4.48948 20.0324 5.27631 18.2144 6.65912 16.8349C7.6435 15.8505 8.84886 15.1675 10.1647 14.836C10.2919 14.7992 10.379 14.6753 10.3622 14.5414ZM25.446 13.6574C25.446 9.99449 22.5029 7.01793 18.8533 6.96101C15.1435 6.90409 12.0531 9.94762 12.0531 13.6574C12.0531 15.7601 13.0241 17.6351 14.5375 18.8639C13.4617 19.3626 12.4824 20.0472 11.6446 20.8862C9.80979 22.7177 8.77185 25.1351 8.70488 27.7132C8.70399 27.749 8.71026 27.7845 8.72332 27.8178C8.73638 27.8511 8.75597 27.8814 8.78093 27.907C8.80589 27.9326 8.83572 27.9529 8.86867 27.9668C8.90161 27.9807 8.93699 27.9878 8.97274 27.9878H10.8477C10.9917 27.9878 11.1122 27.874 11.1156 27.73C11.1792 25.788 11.966 23.9699 13.3489 22.5905C14.7919 21.1474 16.7071 20.3539 18.7495 20.3539C22.446 20.3539 25.446 17.3572 25.446 13.6574ZM21.7797 16.6876C20.9694 17.4978 19.8946 17.9432 18.7495 17.9432C17.6044 17.9432 16.5297 17.4978 15.7194 16.6876C15.3151 16.2853 14.9956 15.806 14.7799 15.2781C14.5642 14.7501 14.4567 14.1842 14.4638 13.6139C14.4739 12.5157 14.9125 11.4543 15.6792 10.6675C16.4828 9.84382 17.5576 9.38512 18.706 9.37172C19.841 9.36168 20.9426 9.80364 21.7529 10.5972C22.5832 11.4108 23.0386 12.499 23.0386 13.6574C23.0352 14.8025 22.5899 15.8773 21.7797 16.6876Z" fill="white"/>
</svg>
