<svg width="26" height="28" viewBox="0 0 26 28" fill="none" xmlns="http://www.w3.org/2000/svg">
<path d="M24.6011 22.42C23.9695 20.924 23.0529 19.565 21.9024 18.4189C20.7554 17.2695 19.3967 16.3531 17.9013 15.7203C17.8879 15.7136 17.8745 15.7102 17.8611 15.7035C19.9471 14.1968 21.3031 11.7426 21.3031 8.97362C21.3031 4.38656 17.5866 0.670044 12.9995 0.670044C8.41247 0.670044 4.69595 4.38656 4.69595 8.97362C4.69595 11.7426 6.05198 14.1968 8.13792 15.7069C8.12453 15.7136 8.11113 15.7169 8.09774 15.7236C6.59774 16.3564 5.25176 17.2638 4.09662 18.4223C2.94721 19.5693 2.03079 20.928 1.39796 22.4234C0.776274 23.8874 0.440983 25.457 0.41024 27.0473C0.409346 27.083 0.415614 27.1186 0.428675 27.1518C0.441735 27.1851 0.461324 27.2154 0.486286 27.241C0.511248 27.2666 0.54108 27.2869 0.574022 27.3008C0.606964 27.3147 0.642351 27.3218 0.678097 27.3218H2.68703C2.83435 27.3218 2.95153 27.2046 2.95488 27.0607C3.02185 24.4759 4.05979 22.0551 5.89461 20.2203C7.79305 18.3218 10.3143 17.2772 12.9995 17.2772C15.6848 17.2772 18.206 18.3218 20.1044 20.2203C21.9393 22.0551 22.9772 24.4759 23.0442 27.0607C23.0475 27.208 23.1647 27.3218 23.312 27.3218H25.321C25.3567 27.3218 25.3921 27.3147 25.425 27.3008C25.458 27.2869 25.4878 27.2666 25.5128 27.241C25.5377 27.2154 25.5573 27.1851 25.5704 27.1518C25.5834 27.1186 25.5897 27.083 25.5888 27.0473C25.5553 25.4468 25.2239 23.8899 24.6011 22.42V22.42ZM12.9995 14.7325C11.4627 14.7325 10.0163 14.1332 8.9281 13.045C7.83993 11.9569 7.2406 10.5104 7.2406 8.97362C7.2406 7.43679 7.83993 5.99036 8.9281 4.90219C10.0163 3.81402 11.4627 3.21469 12.9995 3.21469C14.5364 3.21469 15.9828 3.81402 17.071 4.90219C18.1591 5.99036 18.7585 7.43679 18.7585 8.97362C18.7585 10.5104 18.1591 11.9569 17.071 13.045C15.9828 14.1332 14.5364 14.7325 12.9995 14.7325Z" fill="white"/>
</svg>
