<svg width="30" height="30" viewBox="0 0 30 30" fill="none" xmlns="http://www.w3.org/2000/svg">
<path d="M26.7855 15.1978H14.7988V3.21124C14.7988 3.06392 14.6783 2.94338 14.531 2.94338H13.6605C11.9016 2.9405 10.1596 3.28542 8.53459 3.9583C6.90957 4.63118 5.43364 5.61873 4.19171 6.86414C2.96863 8.08343 1.99411 9.52874 1.32229 11.1197C0.623196 12.7698 0.264467 14.5441 0.267598 16.3362C0.264718 18.0951 0.609639 19.8371 1.28252 21.4621C1.95539 23.0871 2.94295 24.5631 4.18836 25.805C5.41715 27.0338 6.85019 28.0014 8.44394 28.6744C10.0941 29.3735 11.8684 29.7322 13.6605 29.7291C15.4193 29.732 17.1613 29.3871 18.7863 28.7142C20.4113 28.0413 21.8873 27.0538 23.1292 25.8083C24.358 24.5795 25.3256 23.1465 25.9986 21.5528C26.6977 19.9026 27.0564 18.1283 27.0533 16.3362V15.4657C27.0533 15.3184 26.9328 15.1978 26.7855 15.1978ZM21.4852 24.2313C20.4485 25.26 19.2189 26.0741 17.867 26.6268C16.5151 27.1795 15.0674 27.46 13.6069 27.4523C10.6571 27.4389 7.88479 26.2838 5.79885 24.1978C3.69952 22.0985 2.54438 19.3061 2.54438 16.3362C2.54438 13.3664 3.69952 10.574 5.79885 8.47463C7.62697 6.64651 9.98077 5.53155 12.5221 5.27709V17.4746H24.7196C24.4618 20.0293 23.3368 22.3965 21.4852 24.2313V24.2313ZM29.7319 13.3362L29.6448 12.392C29.3602 9.30834 27.9908 6.39874 25.7877 4.20231C23.583 2.00185 20.6794 0.64003 17.5779 0.351864L16.6303 0.264811C16.473 0.251418 16.339 0.371954 16.339 0.52932V13.3898C16.339 13.5371 16.4596 13.6577 16.6069 13.6577L29.464 13.6242C29.6214 13.6242 29.7453 13.4903 29.7319 13.3362ZM18.6091 11.3876V2.79606C20.7183 3.23752 22.6538 4.28206 24.1805 5.80276C25.7107 7.32954 26.7587 9.27151 27.1939 11.3641L18.6091 11.3876Z" fill="white"/>
</svg>
